<?xml version="1.0" standalone="no"?>
<!DOCTYPE svg PUBLIC "-//W3C//DTD SVG 20010904//EN"
 "http://www.w3.org/TR/2001/REC-SVG-20010904/DTD/svg10.dtd">
<svg version="1.0" xmlns="http://www.w3.org/2000/svg"
 width="1440.000000pt" height="1440.000000pt" viewBox="0 0 1440.000000 1440.000000"
 preserveAspectRatio="xMidYMid meet">

<g transform="translate(0.000000,1440.000000) scale(0.100000,-0.100000)"
fill="#000000" stroke="none">
<path d="M7200 9285 l0 -1585 -2375 0 -2375 0 0 -250 0 -250 2950 0 2950 0 0
250 0 250 -325 0 -325 0 0 1585 0 1585 -250 0 -250 0 0 -1585z"/>
<path d="M8510 8435 l0 -2435 250 0 250 0 0 600 0 600 1075 0 1075 0 0 250 0
250 -1075 0 -1075 0 0 1585 0 1585 -250 0 -250 0 0 -2435z"/>
<path d="M7200 6535 l0 -535 250 0 250 0 0 535 0 535 -250 0 -250 0 0 -535z"/>
<path d="M8368 4949 c-76 -11 -127 -38 -176 -94 -76 -86 -76 -85 -80 -575 -2
-303 0 -453 8 -495 33 -168 139 -255 310 -255 138 0 241 61 291 173 l24 52 0
485 c0 484 0 485 -23 534 -12 28 -34 65 -48 83 -30 40 -106 80 -166 88 -24 4
-52 8 -63 9 -11 2 -46 -1 -77 -5z m153 -162 c19 -12 43 -40 54 -62 19 -38 20
-60 20 -485 0 -425 -1 -447 -20 -484 -29 -57 -64 -79 -132 -83 -76 -5 -119 17
-153 77 l-25 45 0 445 c0 425 1 447 20 485 29 58 75 85 145 85 43 0 66 -6 91
-23z"/>
<path d="M9146 4949 c-113 -16 -206 -95 -238 -202 -10 -31 -13 -161 -13 -507
0 -541 -1 -536 90 -626 61 -61 122 -84 225 -84 103 0 164 23 225 84 91 90 90
85 90 626 0 420 -2 470 -18 516 -36 105 -118 176 -218 189 -24 4 -53 8 -64 9
-11 2 -46 -1 -79 -5z m155 -162 c19 -12 43 -40 54 -62 19 -38 20 -60 20 -485
l0 -445 -25 -45 c-34 -60 -77 -82 -153 -77 -68 4 -103 26 -132 83 -19 37 -20
59 -20 484 0 425 1 447 20 485 29 58 75 85 145 85 43 0 66 -6 91 -23z"/>
<path d="M1880 4240 l0 -700 80 0 80 0 0 305 0 305 160 0 160 0 0 70 0 70
-160 0 -160 0 0 255 0 255 200 0 200 0 0 70 0 70 -280 0 -280 0 0 -700z"/>
<path d="M2637 4267 c-71 -369 -131 -684 -134 -699 l-5 -28 70 0 c47 0 71 4
75 13 2 6 15 69 27 140 l23 127 178 0 c161 0 178 -2 183 -17 3 -10 15 -73 27
-140 l23 -123 79 0 c77 0 79 1 74 23 -3 12 -62 319 -132 682 -69 363 -128 668
-131 678 -5 15 -19 17 -117 17 l-112 0 -128 -673z m314 86 l76 -388 -150 -3
c-82 -1 -152 0 -154 2 -7 6 140 776 147 776 3 0 40 -174 81 -387z"/>
<path d="M3380 4241 l0 -701 80 0 80 0 0 301 0 301 98 -4 c112 -4 153 -22 187
-78 18 -31 21 -58 26 -250 3 -123 11 -227 17 -242 11 -27 14 -28 88 -28 75 0
76 0 69 23 -4 12 -11 123 -14 247 -6 204 -9 230 -29 275 -28 62 -56 93 -104
115 l-37 16 52 35 c64 42 94 98 109 200 11 80 5 242 -12 299 -20 71 -64 126
-127 156 -58 29 -60 29 -270 32 l-213 3 0 -700z m389 541 c66 -33 76 -57 79
-208 5 -164 0 -195 -38 -238 -36 -41 -89 -56 -194 -56 l-76 0 0 260 0 260 98
0 c73 0 106 -4 131 -18z"/>
<path d="M4170 4240 l0 -700 290 0 290 0 0 70 0 70 -210 0 -210 0 0 250 0 250
170 0 170 0 0 70 0 70 -170 0 -170 0 0 240 0 240 210 0 210 0 0 70 0 70 -290
0 -290 0 0 -700z"/>
<path d="M4890 4240 l0 -700 280 0 280 0 0 70 0 70 -200 0 -200 0 0 630 0 630
-80 0 -80 0 0 -700z"/>
<path d="M5570 4240 l0 -700 275 0 275 0 0 70 0 70 -200 0 -200 0 0 630 0 630
-75 0 -75 0 0 -700z"/>
<path d="M6550 4240 l0 -702 213 4 c194 3 216 6 263 27 63 28 106 70 136 136
21 46 23 64 23 220 0 118 -4 182 -14 209 -18 51 -76 115 -126 137 l-39 18 26
10 c48 18 96 70 115 124 23 65 25 280 4 342 -23 70 -60 113 -120 142 -55 28
-60 28 -268 31 l-213 3 0 -701z m390 542 c56 -28 70 -68 70 -205 0 -144 -13
-180 -74 -208 -30 -14 -65 -19 -133 -19 l-93 0 0 225 0 225 98 0 c72 0 106 -4
132 -18z m13 -600 c67 -39 86 -93 87 -247 0 -117 -12 -170 -48 -208 -34 -36
-78 -47 -189 -47 l-93 0 0 267 0 266 107 -6 c73 -5 115 -12 136 -25z"/>
<path d="M7330 4241 l0 -701 80 0 80 0 0 301 0 301 98 -4 c109 -5 147 -19 184
-70 22 -31 23 -44 29 -244 4 -120 12 -227 18 -247 l13 -37 79 0 c80 0 80 0 67
23 -8 14 -14 97 -19 247 -4 141 -11 239 -20 263 -16 48 -70 111 -109 127 -38
16 -38 24 -1 40 40 16 76 56 103 115 21 46 23 63 22 210 0 126 -4 169 -17 204
-27 69 -65 111 -126 140 -54 25 -63 26 -268 29 l-213 3 0 -700z m407 533 c53
-39 63 -74 63 -232 0 -220 -25 -252 -207 -260 l-103 -5 0 263 0 262 109 -4
c92 -2 114 -6 138 -24z"/>
<path d="M9680 4240 l0 -700 75 0 75 0 0 232 0 232 40 68 c23 37 43 68 45 68
3 0 72 -135 155 -300 l150 -300 75 0 c41 0 75 4 75 9 0 4 -81 176 -180 381
l-179 372 174 316 c96 173 175 317 175 319 0 2 -35 3 -77 3 l-78 0 -180 -330
c-99 -181 -183 -330 -187 -330 -5 0 -8 149 -8 330 l0 330 -75 0 -75 0 0 -700z"/>
<path d="M10500 4240 l0 -700 275 0 275 0 0 70 0 70 -197 2 -198 3 -3 628 -2
627 -75 0 -75 0 0 -700z"/>
<path d="M11020 4883 c10 -32 78 -236 149 -454 l131 -395 0 -247 0 -247 75 0
75 0 0 253 0 252 149 448 149 447 -73 0 -74 0 -81 -252 c-45 -139 -93 -290
-108 -335 -14 -46 -29 -83 -32 -83 -3 0 -53 150 -111 333 l-105 332 -81 3 -82
3 19 -58z"/>
<path d="M11860 4240 l0 -700 70 0 70 0 2 557 3 557 175 -554 175 -555 83 -3
82 -3 0 701 0 700 -70 0 -70 0 -2 -497 -3 -498 -159 498 -160 497 -98 0 -98 0
0 -700z"/>
</g>
</svg>
